<svg width="15" height="14" viewBox="0 0 15 14" fill="none" xmlns="http://www.w3.org/2000/svg">
<path d="M11 7L6.625 11.375L5.35625 10.15L7.63125 7.875L0.5 7.875L0.5 6.125L7.63125 6.125L5.35625 3.85L6.625 2.625L11 7ZM14.5 12.25C14.5 12.7312 14.3288 13.1431 13.9864 13.4855C13.644 13.8279 13.2318 13.9994 12.75 14L10.125 14L10.125 12.25L12.75 12.25L12.75 1.75L10.125 1.75L10.125 -4.20722e-07L12.75 -5.35465e-07C13.2312 -5.56501e-07 13.6434 0.171208 13.9864 0.513624C14.3294 0.856041 14.5006 1.26817 14.5 1.75L14.5 12.25Z" fill="white"/>
</svg>
